<?xml version="1.0" encoding="utf-8"?>
<!-- Generator: Adobe Illustrator 24.0.2, SVG Export Plug-In . SVG Version: 6.00 Build 0)  -->
<svg version="1.1" id="Capa_1" xmlns="http://www.w3.org/2000/svg" xmlns:xlink="http://www.w3.org/1999/xlink" x="0px" y="0px"
	 viewBox="0 0 59.53 59.53" style="enable-background:new 0 0 59.53 59.53;" xml:space="preserve">
<style type="text/css">
	.st0{fill:#D5D5D4;}
</style>
<g>
	<g>
		<path class="st0" d="M8.58,1.73c3.74,0,6.73,3.03,6.7,6.75c-0.03,3.72-3.06,6.75-6.8,6.75c-3.72,0-6.73-3.03-6.7-6.75
			S4.86,1.73,8.58,1.73z"/>
	</g>
	<g>
		<polygon class="st0" points="14.27,20.33 13.99,57.8 2.33,57.8 2.62,20.33 		"/>
	</g>
	<g>
		<path class="st0" d="M43.92,19.42c11.8,0,13.91,7.74,13.83,17.84L57.59,57.8H45.97l0.14-18.21c0.03-4.36-0.02-9.95-5.98-9.95
			c-6.06,0-7.01,4.73-7.05,9.63L32.93,57.8H21.28l0.29-37.47h11.16l-0.04,5.12h0.17C34.43,22.52,38.25,19.42,43.92,19.42z"/>
	</g>
</g>
</svg>
