<?xml version="1.0" encoding="utf-8"?>
<!-- Generator: Adobe Illustrator 24.0.2, SVG Export Plug-In . SVG Version: 6.00 Build 0)  -->
<svg version="1.1" id="Capa_1" xmlns="http://www.w3.org/2000/svg" xmlns:xlink="http://www.w3.org/1999/xlink" x="0px" y="0px"
	 viewBox="0 0 59.53 59.53" style="enable-background:new 0 0 59.53 59.53;" xml:space="preserve">
<style type="text/css">
	.st0{fill:#D5D5D4;}
</style>
<g>
	<path class="st0" d="M54.33,15.95C51.79,11.6,48.35,8.16,44,5.63c-4.35-2.54-9.09-3.8-14.24-3.8c-5.15,0-9.89,1.27-14.24,3.8
		C11.18,8.16,7.74,11.6,5.2,15.95c-2.54,4.35-3.8,9.09-3.8,14.24c0,6.18,1.8,11.74,5.41,16.68c3.61,4.94,8.27,8.35,13.98,10.25
		c0.66,0.12,1.16,0.04,1.48-0.26c0.32-0.3,0.48-0.66,0.48-1.11c0-0.07-0.01-0.74-0.02-1.99c-0.01-1.26-0.02-2.35-0.02-3.29
		l-0.85,0.15c-0.54,0.1-1.23,0.14-2.05,0.13c-0.82-0.01-1.68-0.1-2.57-0.26c-0.89-0.16-1.71-0.53-2.47-1.11
		c-0.76-0.58-1.3-1.34-1.62-2.27l-0.37-0.85c-0.25-0.57-0.63-1.19-1.16-1.88c-0.53-0.69-1.07-1.16-1.61-1.4l-0.26-0.19
		c-0.17-0.12-0.33-0.27-0.48-0.44C9.11,42.17,9,42,8.93,41.83c-0.07-0.17-0.01-0.31,0.18-0.43c0.2-0.11,0.55-0.17,1.07-0.17
		l0.74,0.11c0.49,0.1,1.1,0.39,1.83,0.89c0.73,0.49,1.32,1.13,1.79,1.92c0.57,1.01,1.25,1.78,2.05,2.31
		c0.8,0.53,1.61,0.79,2.42,0.79s1.51-0.06,2.11-0.18c0.59-0.12,1.14-0.31,1.66-0.55c0.22-1.65,0.83-2.92,1.81-3.8
		c-1.4-0.15-2.67-0.37-3.79-0.66c-1.12-0.3-2.28-0.78-3.47-1.44c-1.19-0.66-2.19-1.49-2.97-2.47c-0.79-0.99-1.43-2.28-1.94-3.88
		c-0.5-1.6-0.76-3.45-0.76-5.54c0-2.98,0.97-5.52,2.92-7.61c-0.91-2.24-0.83-4.75,0.26-7.53c0.71-0.22,1.77-0.06,3.18,0.5
		c1.4,0.55,2.43,1.03,3.08,1.42c0.65,0.39,1.18,0.73,1.57,1c2.29-0.64,4.65-0.96,7.09-0.96s4.8,0.32,7.09,0.96l1.4-0.89
		c0.96-0.59,2.09-1.13,3.4-1.63c1.31-0.49,2.3-0.63,2.99-0.41c1.11,2.78,1.21,5.29,0.29,7.53c1.95,2.09,2.92,4.63,2.92,7.61
		c0,2.09-0.25,3.95-0.76,5.56c-0.5,1.61-1.16,2.91-1.96,3.88c-0.8,0.97-1.8,1.79-2.99,2.46c-1.19,0.66-2.35,1.14-3.47,1.44
		c-1.12,0.3-2.38,0.52-3.79,0.67c1.28,1.11,1.92,2.86,1.92,5.24v7.79c0,0.44,0.15,0.81,0.46,1.11c0.31,0.29,0.79,0.38,1.46,0.26
		c5.71-1.9,10.37-5.31,13.98-10.25c3.61-4.94,5.41-10.5,5.41-16.68C58.13,25.04,56.86,20.3,54.33,15.95z"/>
</g>
</svg>
