<?xml version="1.0" encoding="utf-8"?>
<!-- Generator: Adobe Illustrator 24.0.2, SVG Export Plug-In . SVG Version: 6.00 Build 0)  -->
<svg version="1.1" id="Capa_1" xmlns="http://www.w3.org/2000/svg" xmlns:xlink="http://www.w3.org/1999/xlink" x="0px" y="0px"
	 viewBox="0 0 59.53 59.53" style="enable-background:new 0 0 59.53 59.53;" xml:space="preserve">
<style type="text/css">
	.st0{fill:#D5D5D4;}
</style>
<g>
	<g>
		<path class="st0" d="M20.54,16.7c0.53,0,1.08,0.1,1.61,0.19c0.32,0.04,0.61,0.51,0.77,0.84c0.77,1.79,1.53,3.59,2.2,5.43
			c0.37,0.97-0.31,1.9-1.74,3.5c-0.45,0.51-0.54,0.99-0.2,1.58c2.25,3.86,5.42,6.65,9.61,8.3c0.19,0.07,0.36,0.11,0.53,0.11
			c0.36,0,0.66-0.17,0.93-0.51c1.79-2.16,2.3-3.11,3.03-3.11c0.18,0,0.38,0.06,0.61,0.17c5.6,2.68,6.04,2.79,6.05,3.42
			c0.15,4.5-3.77,6.26-6.42,6.26c-0.14,0-0.27,0-0.4-0.01c-5.42-0.19-14.05-4.48-19.9-14.78c-2.06-3.65-1.73-7.81,1.37-10.68
			C19.17,16.87,19.84,16.7,20.54,16.7z"/>
	</g>
	<g>
		<path class="st0" d="M57.34,24.38C60.01,39.75,49.85,54.32,34.59,57c-1.64,0.28-3.27,0.42-4.87,0.42c-4.3,0-8.46-1-12.46-2.95
			c-0.34-0.17-0.76-0.25-1.15-0.25c-0.2,0-0.39,0.02-0.56,0.06C8.17,56.13,3.26,57.51,1.76,57.8c0.33-1.2,0.61-2.26,0.89-3.31
			c0.95-3.38,1.93-6.73,2.82-10.11c0.13-0.51,0.09-1.16-0.14-1.63C-3.11,26.45,5.88,6.71,23.86,2.49c2.22-0.52,4.41-0.76,6.54-0.76
			C43.94,1.73,55.12,11.67,57.34,24.38z M33.44,52.52C46.08,50.5,54.81,38.7,52.98,26.11C51.29,14.51,41.47,6.31,30.22,6.31
			c-1.39,0-2.81,0.13-4.24,0.39C10.34,9.56,1.91,26.98,9.57,40.79c0.85,1.52,1.08,2.79,0.47,4.41c-0.69,1.96-1.13,3.99-1.76,6.21
			c2.77-0.72,5.33-1.35,7.87-2.07c0.24-0.06,0.45-0.09,0.66-0.09c0.43,0,0.81,0.13,1.23,0.37c3.66,2.12,7.52,3.22,11.6,3.22
			C30.9,52.83,32.16,52.73,33.44,52.52"/>
	</g>
</g>
</svg>
