<?xml version="1.0" encoding="utf-8"?>
<!-- Generator: Adobe Illustrator 24.0.2, SVG Export Plug-In . SVG Version: 6.00 Build 0)  -->
<svg version="1.1" id="logo-cris" xmlns="http://www.w3.org/2000/svg" xmlns:xlink="http://www.w3.org/1999/xlink" x="0px" y="0px"
	 viewBox="0 0 344.79 443.52" style="enable-background:new 0 0 344.79 443.52;" xml:space="preserve">
<style type="text/css">
	.st0{fill:#414141;}
</style>
<g id="vyaIdo.tif">
	<g>
		<path class="st0" d="M138.23,402.78c-16.9,8.47-33.41,8.4-49.19-1.62c-15.85-10.06-22.72-25.08-22.07-43.96
			c-0.82,0.26-1.45,0.38-2,0.65C35.81,372.31-0.19,351.37,0,316.05c0.29-51.2,0.07-102.41,0.08-153.61
			c0-12.57-0.25-25.15,0.14-37.71C1.23,92.31,35,71.73,64.38,85.46c0.73,0.34,1.48,0.62,2.58,1.08
			c-0.68-18.89,6.15-33.94,21.94-44.02c15.77-10.06,32.28-10.21,49.2-1.75c0.24-0.72,0.53-1.37,0.68-2.05
			c8.41-36.37,51.08-50.86,79.97-27.1c23.66,19.46,47.24,39.03,70.85,58.55c11.04,9.12,21.99,18.35,33.13,27.35
			c33.73,27.28,25.54,71.17-2.8,91.62c-18.12,13.07-37.72,14.28-57.6,4.47c-38.29-18.89-76.38-38.18-114.55-57.3
			c-0.8-0.4-1.61-0.77-2.75-1.32c0,57.99,0,115.6,0,173.59c1.02-0.47,1.83-0.82,2.61-1.21c38.02-19.05,76.05-38.1,114.07-57.15
			c37.81-18.94,74.65,6.51,81.69,40.33c4.63,22.28-2.84,40.61-20.02,54.93c-34.66,28.89-69.53,57.53-104.32,86.26
			c-23.22,19.18-57.15,14.37-73.52-10.43c-3.2-4.84-5.4-10.12-6.64-15.79C138.75,404.73,138.52,403.94,138.23,402.78z M67,221.78
			c0-31.63,0-63.26,0-94.9c0-9.91,0.03-19.81-0.05-29.72c-0.01-0.93-0.39-2.31-1.07-2.72c-6.58-4.06-13.72-6.4-21.53-6.13
			c-21.3,0.74-37.07,17.31-37.09,39.13C7.21,190.37,7.2,253.3,7.34,316.23c0.01,4.58,0.71,9.37,2.17,13.71
			c7.31,21.73,32.64,31.56,53.21,21.11c3.23-1.64,4.4-3.44,4.39-7.16C66.94,303.19,67,262.48,67,221.78z M74.28,344.64
			c0.91-0.4,1.59-0.65,2.23-0.98c19.42-9.92,38.8-19.89,58.27-29.69c2.33-1.17,2.96-2.48,2.95-4.94c-0.1-18.4-0.05-36.79-0.05-55.19
			c0-39.96-0.02-79.91,0.04-119.87c0-1.98-0.52-3.08-2.38-4.02c-19.53-9.88-39-19.86-58.49-29.81c-0.77-0.4-1.58-0.74-2.56-1.2
			C74.28,180.99,74.28,262.67,74.28,344.64z M329.01,274.43c-1.22,0.8-2.12,1.37-3.01,1.97c-43.77,29.45-87.54,58.9-131.32,88.36
			c-15.88,10.68-31.74,21.39-47.66,32.02c-1.54,1.03-2.2,2.1-1.74,3.89c0.71,2.73,1.14,5.56,2.08,8.21
			c9.03,25.52,42.67,37.44,66.54,17.78c35.4-29.15,70.84-58.25,105.98-87.71c14.44-12.1,20.29-27.87,16.58-46.69
			C335.23,285.92,332.8,280.05,329.01,274.43z M329.02,169.22c0.79-1.26,1.45-2.21,2.01-3.22c11.91-21.36,7.33-46.06-11.48-61.75
			C309,95.46,298.39,86.74,287.8,77.99c-24.5-20.25-48.99-40.53-73.52-60.75c-9.68-7.98-20.74-11.34-33.26-9.62
			c-18.29,2.52-32.85,16.76-35.7,34.85c-0.33,2.07,0.08,3.33,1.92,4.53c6.7,4.34,13.28,8.88,19.91,13.34
			c46.53,31.31,93.06,62.62,139.6,93.93C314.07,159.19,321.38,164.09,329.02,169.22z M324.73,175.01
			c-60-40.37-119.68-80.52-179.7-120.91c-0.11,1.28-0.22,1.93-0.22,2.58c-0.01,22.64,0.01,45.29-0.04,67.93
			c0,1.71,0.68,2.49,2.11,3.2c39.67,19.85,79.27,39.83,118.99,59.58c13.54,6.73,27.51,7.31,41.47,0.94
			C314.01,185.29,319.69,180.9,324.73,175.01z M324.69,268.63c-0.71-0.84-1.21-1.48-1.76-2.07c-15.26-16.16-37.48-20.18-57.4-10.21
			c-39.45,19.72-78.85,39.54-118.31,59.26c-1.84,0.92-2.46,1.98-2.45,4c0.07,22.23,0.04,44.45,0.05,66.68
			c0,0.88,0.08,1.75,0.16,3.27C205.12,349.08,264.8,308.93,324.69,268.63z M137.68,123.11c0-1.45,0-2.41,0-3.36
			c0-22.56-0.04-45.12,0.07-67.68c0.01-2.36-0.84-3.57-2.77-4.69c-20.6-11.97-47.69-3.2-57.39,18.57
			c-3.11,6.97-3.6,14.27-3.53,21.74c0.02,2.11,0.6,3.26,2.52,4.23c18.03,9.15,36.02,18.39,54.02,27.61
			C132.78,120.66,134.99,121.76,137.68,123.11z M137.68,320.58c-1.23,0.57-2.05,0.92-2.84,1.32c-17.63,9.02-35.27,18.03-52.89,27.07
			c-2.58,1.32-6.09,2.21-7.34,4.36c-1.31,2.26-0.6,5.81-0.47,8.79c0.66,15.29,7.62,26.96,20.97,34.33
			c13.34,7.36,26.9,7.04,40.25-0.46c1.72-0.97,2.37-2.13,2.37-4.16c-0.08-22.73-0.05-45.45-0.05-68.18
			C137.68,322.77,137.68,321.89,137.68,320.58z"/>
	</g>
</g>
</svg>
